<?xml version="1.0" encoding="UTF-8" standalone="no"?>
<!-- Created with Inkscape (http://www.inkscape.org/) -->

<svg
   width="640"
   height="920"
   viewBox="0 0 169.33333 243.41667"
   version="1.1"
   id="svg1"
   inkscape:version="1.4 (86a8ad7, 2024-10-11)"
   sodipodi:docname="card_back.svg"
   xmlns:inkscape="http://www.inkscape.org/namespaces/inkscape"
   xmlns:sodipodi="http://sodipodi.sourceforge.net/DTD/sodipodi-0.dtd"
   xmlns="http://www.w3.org/2000/svg"
   xmlns:svg="http://www.w3.org/2000/svg">
  <sodipodi:namedview
     id="namedview1"
     pagecolor="#ffffff"
     bordercolor="#666666"
     borderopacity="1.0"
     inkscape:showpageshadow="2"
     inkscape:pageopacity="0.0"
     inkscape:pagecheckerboard="0"
     inkscape:deskcolor="#d1d1d1"
     inkscape:document-units="mm"
     inkscape:zoom="1.6249158"
     inkscape:cx="155.39266"
     inkscape:cy="370.48073"
     inkscape:window-width="3840"
     inkscape:window-height="2054"
     inkscape:window-x="2549"
     inkscape:window-y="-11"
     inkscape:window-maximized="1"
     inkscape:current-layer="layer1" />
  <defs
     id="defs1">
    <inkscape:path-effect
       effect="offset"
       id="path-effect4"
       is_visible="true"
       lpeversion="1.3"
       linejoin_type="miter"
       unit="px"
       offset="0"
       miter_limit="4"
       attempt_force_join="false"
       update_on_knot_move="true" />
    <inkscape:path-effect
       effect="offset"
       id="path-effect2"
       is_visible="true"
       lpeversion="1.3"
       linejoin_type="miter"
       unit="px"
       offset="-25"
       miter_limit="4"
       attempt_force_join="false"
       update_on_knot_move="true" />
  </defs>
  <g
     inkscape:label="Vrstva 1"
     inkscape:groupmode="layer"
     id="layer1">
    <path
       id="path2"
       style="fill:#008080;stroke:none;stroke-width:2;paint-order:stroke fill markers"
       d="M 17.882629 -0.32607829 C 7.975686 -0.32607829 -2.5066369e-15 7.6496068 0 17.556551 L 0 225.533 C 0 235.43995 7.975686 243.41615 17.882629 243.41615 L 151.45122 243.41615 C 161.35817 243.41615 169.33385 235.43995 169.33385 225.533 L 169.33385 17.556551 C 169.33385 7.6496068 161.35817 -0.32607829 151.45122 -0.32607829 L 17.882629 -0.32607829 z M 17.882629 6.2988403 L 151.45122 6.2988403 C 157.80263 6.2988403 162.70893 11.205147 162.70893 17.556551 L 162.70893 225.533 C 162.70893 231.88441 157.80263 236.79123 151.45122 236.79123 L 17.882629 236.79123 C 11.531226 236.79123 6.6249186 231.88441 6.6249186 225.533 L 6.6249186 17.556551 C 6.6249186 11.205147 11.531226 6.2988403 17.882629 6.2988403 z " />
    <path
       style="fill:#550000;stroke:none;stroke-width:2;paint-order:stroke fill markers"
       d="M 17.882629,-0.32607829 C 7.975686,-0.32607829 0,7.6496068 0,17.556551 V 225.533 c 0,9.90695 7.975686,17.88315 17.882629,17.88315 H 151.45122 c 9.90695,0 17.88263,-7.9762 17.88263,-17.88315 V 17.556551 c 0,-9.9069442 -7.97568,-17.88262929 -17.88263,-17.88262929 z"
       id="path4" />
    <path
       style="fill:#800000;stroke:none;stroke-width:2;paint-order:stroke fill markers"
       d="M 17.882629,6.2988403 H 151.45122 c 6.35141,0 11.25771,4.9063067 11.25771,11.2577107 V 225.533 c 0,6.35141 -4.9063,11.25823 -11.25771,11.25823 H 17.882629 c -6.351403,0 -11.2577104,-4.90682 -11.2577104,-11.25823 V 17.556551 c 0,-6.351404 4.9063074,-11.2577107 11.2577104,-11.2577107 z"
       id="path5" />
  </g>
</svg>
